<mxfile host="app.diagrams.net" modified="2023-10-12T19:40:47.485Z" agent="Mozilla/5.0 (Macintosh; Intel Mac OS X 10_15_7) AppleWebKit/537.36 (KHTML, like Gecko) Chrome/113.0.0.0 Safari/537.36" version="21.8.2" etag="xlXpIe1Wf9KPsh0Y-BiU" type="github">
  <diagram name="Page-1" id="VrENIdGjppXOeH7L5Ptp">
    <mxGraphModel>
      <root>
        <mxCell id="0" />
        <mxCell id="1" parent="0" />
      </root>
    </mxGraphModel>
  </diagram>
</mxfile>
